<?xml version="1.0" encoding="UTF-8" standalone="no"?>
<!DOCTYPE svg PUBLIC "-//W3C//DTD SVG 1.1//EN"
 "http://www.w3.org/Graphics/SVG/1.1/DTD/svg11.dtd">
<!-- Generated by graphviz version 2.43.0 (0)
 -->
<!-- Title: G Pages: 1 -->
<svg width="1609pt" height="207pt"
 viewBox="0.00 0.00 1609.43 207.28" xmlns="http://www.w3.org/2000/svg" xmlns:xlink="http://www.w3.org/1999/xlink">
<g id="graph0" class="graph" transform="scale(1 1) rotate(0) translate(4 203.28)">
<title>G</title><style>.edge>path:hover{stroke-width:8}</style>
<polygon fill="white" stroke="transparent" points="-4,4 -4,-203.28 1605.43,-203.28 1605.43,4 -4,4"/>
<!-- gitgalaxy_aperture -->
<g id="node1" class="node">
<title>gitgalaxy_aperture</title><style>.edge>path:hover{stroke-width:8}</style>
<ellipse fill="#c24747" stroke="black" cx="45.25" cy="-99.64" rx="45.01" ry="21.43"/>
<text text-anchor="middle" x="45.25" y="-102.64" font-family="Helvetica,sans-Serif" font-size="10.00" fill="#ffffff">gitgalaxy.</text>
<text text-anchor="middle" x="45.25" y="-91.64" font-family="Helvetica,sans-Serif" font-size="10.00" fill="#ffffff">aperture</text>
</g>
<!-- gitgalaxy_galaxyscope -->
<g id="node5" class="node">
<title>gitgalaxy_galaxyscope</title><style>.edge>path:hover{stroke-width:8}</style>
<ellipse fill="#6b2e2e" stroke="black" cx="719.25" cy="-21.21" rx="55.31" ry="21.43"/>
<text text-anchor="middle" x="719.25" y="-24.21" font-family="Helvetica,sans-Serif" font-size="10.00" fill="#ffffff">gitgalaxy.</text>
<text text-anchor="middle" x="719.25" y="-13.21" font-family="Helvetica,sans-Serif" font-size="10.00" fill="#ffffff">galaxyscope</text>
</g>
<!-- gitgalaxy_aperture&#45;&gt;gitgalaxy_galaxyscope -->
<g id="edge1" class="edge">
<title>gitgalaxy_aperture&#45;&gt;gitgalaxy_galaxyscope</title><style>.edge>path:hover{stroke-width:8}</style>
<path fill="none" stroke="black" d="M77.95,-84.81C84.88,-82.33 92.23,-80.03 99.25,-78.43 297.75,-33.14 539.82,-24.07 653.86,-22.43"/>
<polygon fill="#c24747" stroke="black" points="654.21,-25.92 664.17,-22.3 654.12,-18.93 654.21,-25.92"/>
</g>
<!-- gitgalaxy_audit_recorder -->
<g id="node2" class="node">
<title>gitgalaxy_audit_recorder</title><style>.edge>path:hover{stroke-width:8}</style>
<ellipse fill="#b83d3d" stroke="black" cx="170.25" cy="-99.64" rx="61.54" ry="21.43"/>
<text text-anchor="middle" x="170.25" y="-102.64" font-family="Helvetica,sans-Serif" font-size="10.00" fill="#ffffff">gitgalaxy.</text>
<text text-anchor="middle" x="170.25" y="-91.64" font-family="Helvetica,sans-Serif" font-size="10.00" fill="#ffffff">audit_recorder</text>
</g>
<!-- gitgalaxy_audit_recorder&#45;&gt;gitgalaxy_galaxyscope -->
<g id="edge2" class="edge">
<title>gitgalaxy_audit_recorder&#45;&gt;gitgalaxy_galaxyscope</title><style>.edge>path:hover{stroke-width:8}</style>
<path fill="none" stroke="black" d="M214.42,-84.7C222.93,-82.35 231.82,-80.13 240.25,-78.43 387.21,-48.8 562.9,-33.12 655.25,-26.37"/>
<polygon fill="#b83d3d" stroke="black" points="655.56,-29.85 665.28,-25.64 655.06,-22.87 655.56,-29.85"/>
</g>
<!-- gitgalaxy_chronometer -->
<g id="node3" class="node">
<title>gitgalaxy_chronometer</title><style>.edge>path:hover{stroke-width:8}</style>
<ellipse fill="#b83d3d" stroke="black" cx="305.25" cy="-99.64" rx="55.72" ry="21.43"/>
<text text-anchor="middle" x="305.25" y="-102.64" font-family="Helvetica,sans-Serif" font-size="10.00" fill="#ffffff">gitgalaxy.</text>
<text text-anchor="middle" x="305.25" y="-91.64" font-family="Helvetica,sans-Serif" font-size="10.00" fill="#ffffff">chronometer</text>
</g>
<!-- gitgalaxy_chronometer&#45;&gt;gitgalaxy_galaxyscope -->
<g id="edge3" class="edge">
<title>gitgalaxy_chronometer&#45;&gt;gitgalaxy_galaxyscope</title><style>.edge>path:hover{stroke-width:8}</style>
<path fill="none" stroke="black" d="M345.93,-85.02C353.94,-82.62 362.32,-80.29 370.25,-78.43 469.48,-55.13 586.85,-38.4 657.06,-29.52"/>
<polygon fill="#b83d3d" stroke="black" points="657.58,-32.99 667.07,-28.27 656.71,-26.04 657.58,-32.99"/>
</g>
<!-- gitgalaxy_detector -->
<g id="node4" class="node">
<title>gitgalaxy_detector</title><style>.edge>path:hover{stroke-width:8}</style>
<ellipse fill="#b83d3d" stroke="black" cx="424.25" cy="-99.64" rx="45.01" ry="21.43"/>
<text text-anchor="middle" x="424.25" y="-102.64" font-family="Helvetica,sans-Serif" font-size="10.00" fill="#ffffff">gitgalaxy.</text>
<text text-anchor="middle" x="424.25" y="-91.64" font-family="Helvetica,sans-Serif" font-size="10.00" fill="#ffffff">detector</text>
</g>
<!-- gitgalaxy_detector&#45;&gt;gitgalaxy_galaxyscope -->
<g id="edge4" class="edge">
<title>gitgalaxy_detector&#45;&gt;gitgalaxy_galaxyscope</title><style>.edge>path:hover{stroke-width:8}</style>
<path fill="none" stroke="black" d="M459.33,-86C467.16,-83.36 475.45,-80.69 483.25,-78.43 543.69,-60.92 613.94,-44.71 661.99,-34.24"/>
<polygon fill="#b83d3d" stroke="black" points="662.86,-37.63 671.89,-32.09 661.38,-30.79 662.86,-37.63"/>
</g>
<!-- gitgalaxy_gitgalaxy_standards_v1 -->
<g id="node6" class="node">
<title>gitgalaxy_gitgalaxy_standards_v1</title><style>.edge>path:hover{stroke-width:8}</style>
<ellipse fill="#f91010" stroke="black" cx="650.25" cy="-178.07" rx="94.09" ry="21.43"/>
<text text-anchor="middle" x="650.25" y="-181.07" font-family="Helvetica,sans-Serif" font-size="10.00" fill="#ffffff">gitgalaxy.</text>
<text text-anchor="middle" x="650.25" y="-170.07" font-family="Helvetica,sans-Serif" font-size="10.00" fill="#ffffff">gitgalaxy_standards_v1</text>
</g>
<!-- gitgalaxy_gitgalaxy_standards_v1&#45;&gt;gitgalaxy_audit_recorder -->
<g id="edge5" class="edge">
<title>gitgalaxy_gitgalaxy_standards_v1&#45;&gt;gitgalaxy_audit_recorder</title><style>.edge>path:hover{stroke-width:8}</style>
<path fill="none" stroke="black" d="M564.83,-169C481.46,-160.27 351.31,-144.37 240.25,-120.85 235,-119.74 229.55,-118.44 224.13,-117.04"/>
<polygon fill="#f91010" stroke="black" points="225.01,-113.65 214.45,-114.45 223.2,-120.42 225.01,-113.65"/>
</g>
<!-- gitgalaxy_gitgalaxy_standards_v1&#45;&gt;gitgalaxy_chronometer -->
<g id="edge6" class="edge">
<title>gitgalaxy_gitgalaxy_standards_v1&#45;&gt;gitgalaxy_chronometer</title><style>.edge>path:hover{stroke-width:8}</style>
<path fill="none" stroke="black" d="M577.56,-164.6C520.77,-154.35 440.04,-138.66 370.25,-120.85 365.63,-119.67 360.85,-118.36 356.07,-116.99"/>
<polygon fill="#f91010" stroke="black" points="356.92,-113.59 346.33,-114.12 354.93,-120.31 356.92,-113.59"/>
</g>
<!-- gitgalaxy_gitgalaxy_standards_v1&#45;&gt;gitgalaxy_detector -->
<g id="edge7" class="edge">
<title>gitgalaxy_gitgalaxy_standards_v1&#45;&gt;gitgalaxy_detector</title><style>.edge>path:hover{stroke-width:8}</style>
<path fill="none" stroke="black" d="M599.81,-160.16C566.66,-149.04 522.36,-134.13 483.25,-120.85 478.75,-119.32 474.05,-117.72 469.36,-116.12"/>
<polygon fill="#f91010" stroke="black" points="470.41,-112.78 459.81,-112.86 468.14,-119.4 470.41,-112.78"/>
</g>
<!-- gitgalaxy_gitgalaxy_standards_v1&#45;&gt;gitgalaxy_galaxyscope -->
<g id="edge8" class="edge">
<title>gitgalaxy_gitgalaxy_standards_v1&#45;&gt;gitgalaxy_galaxyscope</title><style>.edge>path:hover{stroke-width:8}</style>
<path fill="none" stroke="black" d="M579.29,-164.02C555.14,-155.82 530.64,-142.49 516.25,-120.85 505.81,-105.15 504.84,-93.43 516.25,-78.43 533.47,-55.8 604.65,-39.92 657.9,-30.94"/>
<polygon fill="#f91010" stroke="black" points="658.65,-34.37 667.95,-29.29 657.52,-27.46 658.65,-34.37"/>
</g>
<!-- gitgalaxy_gpu_recorder -->
<g id="node7" class="node">
<title>gitgalaxy_gpu_recorder</title><style>.edge>path:hover{stroke-width:8}</style>
<ellipse fill="#b83d3d" stroke="black" cx="582.25" cy="-99.64" rx="56.64" ry="21.43"/>
<text text-anchor="middle" x="582.25" y="-102.64" font-family="Helvetica,sans-Serif" font-size="10.00" fill="#ffffff">gitgalaxy.</text>
<text text-anchor="middle" x="582.25" y="-91.64" font-family="Helvetica,sans-Serif" font-size="10.00" fill="#ffffff">gpu_recorder</text>
</g>
<!-- gitgalaxy_gitgalaxy_standards_v1&#45;&gt;gitgalaxy_gpu_recorder -->
<g id="edge9" class="edge">
<title>gitgalaxy_gitgalaxy_standards_v1&#45;&gt;gitgalaxy_gpu_recorder</title><style>.edge>path:hover{stroke-width:8}</style>
<path fill="none" stroke="black" d="M632.39,-156.99C624.38,-147.98 614.81,-137.23 606.19,-127.54"/>
<polygon fill="#f91010" stroke="black" points="608.79,-125.2 599.53,-120.06 603.56,-129.86 608.79,-125.2"/>
</g>
<!-- gitgalaxy_guidestar_lens -->
<g id="node8" class="node">
<title>gitgalaxy_guidestar_lens</title><style>.edge>path:hover{stroke-width:8}</style>
<ellipse fill="#b83d3d" stroke="black" cx="719.25" cy="-99.64" rx="62.45" ry="21.43"/>
<text text-anchor="middle" x="719.25" y="-102.64" font-family="Helvetica,sans-Serif" font-size="10.00" fill="#ffffff">gitgalaxy.</text>
<text text-anchor="middle" x="719.25" y="-91.64" font-family="Helvetica,sans-Serif" font-size="10.00" fill="#ffffff">guidestar_lens</text>
</g>
<!-- gitgalaxy_gitgalaxy_standards_v1&#45;&gt;gitgalaxy_guidestar_lens -->
<g id="edge10" class="edge">
<title>gitgalaxy_gitgalaxy_standards_v1&#45;&gt;gitgalaxy_guidestar_lens</title><style>.edge>path:hover{stroke-width:8}</style>
<path fill="none" stroke="black" d="M668.38,-156.99C676.51,-147.98 686.22,-137.23 694.96,-127.54"/>
<polygon fill="#f91010" stroke="black" points="697.62,-129.83 701.72,-120.06 692.42,-125.14 697.62,-129.83"/>
</g>
<!-- gitgalaxy_language_lens -->
<g id="node9" class="node">
<title>gitgalaxy_language_lens</title><style>.edge>path:hover{stroke-width:8}</style>
<ellipse fill="#c04040" stroke="black" cx="861.25" cy="-99.64" rx="61.54" ry="21.43"/>
<text text-anchor="middle" x="861.25" y="-102.64" font-family="Helvetica,sans-Serif" font-size="10.00" fill="#ffffff">gitgalaxy.</text>
<text text-anchor="middle" x="861.25" y="-91.64" font-family="Helvetica,sans-Serif" font-size="10.00" fill="#ffffff">language_lens</text>
</g>
<!-- gitgalaxy_gitgalaxy_standards_v1&#45;&gt;gitgalaxy_language_lens -->
<g id="edge11" class="edge">
<title>gitgalaxy_gitgalaxy_standards_v1&#45;&gt;gitgalaxy_language_lens</title><style>.edge>path:hover{stroke-width:8}</style>
<path fill="none" stroke="black" d="M698.13,-159.72C731.55,-147.62 776.1,-131.48 810.2,-119.13"/>
<polygon fill="#f91010" stroke="black" points="811.76,-122.29 819.97,-115.59 809.38,-115.71 811.76,-122.29"/>
</g>
<!-- gitgalaxy_llm_recorder -->
<g id="node10" class="node">
<title>gitgalaxy_llm_recorder</title><style>.edge>path:hover{stroke-width:8}</style>
<ellipse fill="#b83d3d" stroke="black" cx="996.25" cy="-99.64" rx="55.31" ry="21.43"/>
<text text-anchor="middle" x="996.25" y="-102.64" font-family="Helvetica,sans-Serif" font-size="10.00" fill="#ffffff">gitgalaxy.</text>
<text text-anchor="middle" x="996.25" y="-91.64" font-family="Helvetica,sans-Serif" font-size="10.00" fill="#ffffff">llm_recorder</text>
</g>
<!-- gitgalaxy_gitgalaxy_standards_v1&#45;&gt;gitgalaxy_llm_recorder -->
<g id="edge12" class="edge">
<title>gitgalaxy_gitgalaxy_standards_v1&#45;&gt;gitgalaxy_llm_recorder</title><style>.edge>path:hover{stroke-width:8}</style>
<path fill="none" stroke="black" d="M723.49,-164.73C780.7,-154.55 862.02,-138.89 932.25,-120.85 936.81,-119.68 941.52,-118.38 946.23,-117.01"/>
<polygon fill="#f91010" stroke="black" points="947.24,-120.36 955.82,-114.14 945.24,-113.66 947.24,-120.36"/>
</g>
<!-- gitgalaxy_prism -->
<g id="node11" class="node">
<title>gitgalaxy_prism</title><style>.edge>path:hover{stroke-width:8}</style>
<ellipse fill="#c04040" stroke="black" cx="1114.25" cy="-99.64" rx="45.01" ry="21.43"/>
<text text-anchor="middle" x="1114.25" y="-102.64" font-family="Helvetica,sans-Serif" font-size="10.00" fill="#ffffff">gitgalaxy.</text>
<text text-anchor="middle" x="1114.25" y="-91.64" font-family="Helvetica,sans-Serif" font-size="10.00" fill="#ffffff">prism</text>
</g>
<!-- gitgalaxy_gitgalaxy_standards_v1&#45;&gt;gitgalaxy_prism -->
<g id="edge13" class="edge">
<title>gitgalaxy_gitgalaxy_standards_v1&#45;&gt;gitgalaxy_prism</title><style>.edge>path:hover{stroke-width:8}</style>
<path fill="none" stroke="black" d="M738.51,-170.66C822.28,-163.25 951.23,-148.37 1060.25,-120.85 1063.92,-119.93 1067.67,-118.84 1071.41,-117.65"/>
<polygon fill="#f91010" stroke="black" points="1072.86,-120.85 1081.21,-114.33 1070.61,-114.23 1072.86,-120.85"/>
</g>
<!-- gitgalaxy_signal_processor -->
<g id="node13" class="node">
<title>gitgalaxy_signal_processor</title><style>.edge>path:hover{stroke-width:8}</style>
<ellipse fill="#b83d3d" stroke="black" cx="1247.25" cy="-99.64" rx="69.09" ry="21.43"/>
<text text-anchor="middle" x="1247.25" y="-102.64" font-family="Helvetica,sans-Serif" font-size="10.00" fill="#ffffff">gitgalaxy.</text>
<text text-anchor="middle" x="1247.25" y="-91.64" font-family="Helvetica,sans-Serif" font-size="10.00" fill="#ffffff">signal_processor</text>
</g>
<!-- gitgalaxy_gitgalaxy_standards_v1&#45;&gt;gitgalaxy_signal_processor -->
<g id="edge14" class="edge">
<title>gitgalaxy_gitgalaxy_standards_v1&#45;&gt;gitgalaxy_signal_processor</title><style>.edge>path:hover{stroke-width:8}</style>
<path fill="none" stroke="black" d="M739.72,-171.24C843.42,-163.6 1019.17,-147.87 1168.25,-120.85 1174.47,-119.73 1180.92,-118.38 1187.33,-116.92"/>
<polygon fill="#f91010" stroke="black" points="1188.41,-120.26 1197.34,-114.55 1186.8,-113.45 1188.41,-120.26"/>
</g>
<!-- gitgalaxy_gpu_recorder&#45;&gt;gitgalaxy_galaxyscope -->
<g id="edge15" class="edge">
<title>gitgalaxy_gpu_recorder&#45;&gt;gitgalaxy_galaxyscope</title><style>.edge>path:hover{stroke-width:8}</style>
<path fill="none" stroke="black" d="M612.66,-81.68C632.52,-70.6 658.66,-56.02 680.08,-44.07"/>
<polygon fill="#b83d3d" stroke="black" points="681.91,-47.06 688.94,-39.13 678.5,-40.94 681.91,-47.06"/>
</g>
<!-- gitgalaxy_guidestar_lens&#45;&gt;gitgalaxy_galaxyscope -->
<g id="edge16" class="edge">
<title>gitgalaxy_guidestar_lens&#45;&gt;gitgalaxy_galaxyscope</title><style>.edge>path:hover{stroke-width:8}</style>
<path fill="none" stroke="black" d="M719.25,-78.16C719.25,-70.3 719.25,-61.16 719.25,-52.57"/>
<polygon fill="#b83d3d" stroke="black" points="722.75,-52.49 719.25,-42.49 715.75,-52.49 722.75,-52.49"/>
</g>
<!-- gitgalaxy_language_lens&#45;&gt;gitgalaxy_galaxyscope -->
<g id="edge17" class="edge">
<title>gitgalaxy_language_lens&#45;&gt;gitgalaxy_galaxyscope</title><style>.edge>path:hover{stroke-width:8}</style>
<path fill="none" stroke="black" d="M829.39,-81.49C808.69,-70.35 781.54,-55.74 759.37,-43.81"/>
<polygon fill="#c04040" stroke="black" points="760.99,-40.7 750.53,-39.04 757.67,-46.87 760.99,-40.7"/>
</g>
<!-- gitgalaxy_llm_recorder&#45;&gt;gitgalaxy_galaxyscope -->
<g id="edge18" class="edge">
<title>gitgalaxy_llm_recorder&#45;&gt;gitgalaxy_galaxyscope</title><style>.edge>path:hover{stroke-width:8}</style>
<path fill="none" stroke="black" d="M955.03,-85.3C947.47,-82.95 939.64,-80.57 932.25,-78.43 878.92,-62.98 817.57,-46.97 774.45,-36.01"/>
<polygon fill="#b83d3d" stroke="black" points="775.27,-32.6 764.72,-33.54 773.55,-39.39 775.27,-32.6"/>
</g>
<!-- gitgalaxy_prism&#45;&gt;gitgalaxy_galaxyscope -->
<g id="edge19" class="edge">
<title>gitgalaxy_prism&#45;&gt;gitgalaxy_galaxyscope</title><style>.edge>path:hover{stroke-width:8}</style>
<path fill="none" stroke="black" d="M1081.17,-85.1C1074.33,-82.63 1067.12,-80.26 1060.25,-78.43 964.86,-52.97 851.21,-37.01 782.19,-28.86"/>
<polygon fill="#c04040" stroke="black" points="782.26,-25.35 771.92,-27.67 781.45,-32.3 782.26,-25.35"/>
</g>
<!-- gitgalaxy_security_lens -->
<g id="node12" class="node">
<title>gitgalaxy_security_lens</title><style>.edge>path:hover{stroke-width:8}</style>
<ellipse fill="#c24747" stroke="black" cx="1392.25" cy="-99.64" rx="57.05" ry="21.43"/>
<text text-anchor="middle" x="1392.25" y="-102.64" font-family="Helvetica,sans-Serif" font-size="10.00" fill="#ffffff">gitgalaxy.</text>
<text text-anchor="middle" x="1392.25" y="-91.64" font-family="Helvetica,sans-Serif" font-size="10.00" fill="#ffffff">security_lens</text>
</g>
<!-- gitgalaxy_security_lens&#45;&gt;gitgalaxy_galaxyscope -->
<g id="edge20" class="edge">
<title>gitgalaxy_security_lens&#45;&gt;gitgalaxy_galaxyscope</title><style>.edge>path:hover{stroke-width:8}</style>
<path fill="none" stroke="black" d="M1351.12,-84.82C1342.65,-82.37 1333.72,-80.08 1325.25,-78.43 1130.66,-40.45 895.76,-27.94 784.18,-23.97"/>
<polygon fill="#c24747" stroke="black" points="784.21,-20.47 774.1,-23.63 783.97,-27.47 784.21,-20.47"/>
</g>
<!-- gitgalaxy_signal_processor&#45;&gt;gitgalaxy_galaxyscope -->
<g id="edge21" class="edge">
<title>gitgalaxy_signal_processor&#45;&gt;gitgalaxy_galaxyscope</title><style>.edge>path:hover{stroke-width:8}</style>
<path fill="none" stroke="black" d="M1197.32,-84.85C1187.72,-82.49 1177.71,-80.22 1168.25,-78.43 1032.02,-52.58 870.19,-35.65 782.83,-27.63"/>
<polygon fill="#b83d3d" stroke="black" points="783.09,-24.14 772.81,-26.72 782.46,-31.11 783.09,-24.14"/>
</g>
<!-- gitgalaxy_spectral_auditor -->
<g id="node14" class="node">
<title>gitgalaxy_spectral_auditor</title><style>.edge>path:hover{stroke-width:8}</style>
<ellipse fill="#c24747" stroke="black" cx="1534.25" cy="-99.64" rx="67.35" ry="21.43"/>
<text text-anchor="middle" x="1534.25" y="-102.64" font-family="Helvetica,sans-Serif" font-size="10.00" fill="#ffffff">gitgalaxy.</text>
<text text-anchor="middle" x="1534.25" y="-91.64" font-family="Helvetica,sans-Serif" font-size="10.00" fill="#ffffff">spectral_auditor</text>
</g>
<!-- gitgalaxy_spectral_auditor&#45;&gt;gitgalaxy_galaxyscope -->
<g id="edge22" class="edge">
<title>gitgalaxy_spectral_auditor&#45;&gt;gitgalaxy_galaxyscope</title><style>.edge>path:hover{stroke-width:8}</style>
<path fill="none" stroke="black" d="M1486.71,-84.56C1477.35,-82.2 1467.54,-80 1458.25,-78.43 1211.84,-36.65 913.92,-25.91 784.51,-23.16"/>
<polygon fill="#c24747" stroke="black" points="784.44,-19.65 774.37,-22.95 784.3,-26.65 784.44,-19.65"/>
</g>
</g>
</svg>
